<?xml version="1.0" encoding="utf-8"?>
<!-- Generator: Adobe Illustrator 19.2.1, SVG Export Plug-In . SVG Version: 6.00 Build 0)  -->
<svg version="1.1" id="Layer_1" xmlns="http://www.w3.org/2000/svg" xmlns:xlink="http://www.w3.org/1999/xlink" x="0px" y="0px"
	 viewBox="0 0 500 751" style="enable-background:new 0 0 500 751;" xml:space="preserve">
<style type="text/css">
	.st0{fill:#171617;stroke:#000000;stroke-miterlimit:10;}
	.st1{fill:#333333;}
</style>
<rect class="st0" width="500" height="751"/>
<g>
	<path class="st1" d="M329.1,363.9c0,1.2,0,2.4,0,3.6c0,1.3,0,2.5,0,3.8c0,1.2,0,2.4,0,3.7c0,1.3,0,2.5,0,3.8c0,1.2,0,2.4,0,3.7
		c0,1.3,0,2.5,0,3.8c0,1.2,0,2.4,0,3.7c-0.8,0.3-1.6,0.1-2.4,0.2c-0.8,0-1.6,0-2.4,0c-0.8,0-1.6,0.1-2.5-0.1c0-0.3-0.1-0.5-0.1-0.8
		c0-0.3,0-0.6,0-0.9c0-11.5,0-23.1,0-34.6c0-0.5-0.1-1,0.1-1.5c1-0.2,7-0.2,8.3,0c0.7,1.2,1.4,2.4,2.1,3.7c0.7,1.2,1.4,2.4,2.1,3.6
		c0.7,1.2,1.4,2.5,2.1,3.7c0.7,1.2,1.4,2.4,2.1,3.6c0.7,1.2,1.4,2.5,2.1,3.7c0.7,1.2,1.4,2.4,2.1,3.6c0.7,1.2,1.4,2.5,2.3,3.9
		c0.2-0.9,0.1-1.5,0.1-2.1c0-0.6,0-1.2,0-1.8c0-0.6,0-1.3,0-1.9c0-0.6,0-1.2,0-1.8c0-0.6,0-1.3,0-1.9c0-0.6,0-1.2,0-1.8
		c0-0.6,0-1.3,0-1.9c0-0.6,0-1.2,0-1.8c0-0.6,0-1.3,0-1.9c0-0.6,0-1.2,0-1.8c0-0.6,0-1.3,0-1.9c0-0.6,0-1.2,0-1.8c0-0.6,0-1.3,0-1.9
		c0-0.6-0.1-1.2,0.1-1.7c1-0.2,6-0.2,7.3,0c0,0.2,0.1,0.4,0.1,0.7c0,0.3,0,0.6,0,0.9c0,11.5,0,23,0,34.5c0,0.5,0,1,0,1.5
		c-0.2,0.1-0.4,0.2-0.6,0.2c-2.4,0-4.8,0-7.1,0c-0.5-0.3-0.6-0.8-0.9-1.1c-3.8-6.6-7.5-13.1-11.3-19.7c-0.9-1.6-1.8-3.1-2.7-4.7
		c-0.1-0.2-0.3-0.5-0.5-0.7C329.3,363.8,329.2,363.8,329.1,363.9z"/>
	<path class="st1" d="M300.1,389.9c-1.1,0.2-7.5,0.2-8.6,0c-0.4-0.8-0.5-1.7-0.6-2.5c-0.1-1.2-0.2-2.3-0.3-3.5c0-1.1,0-2.3-0.1-3.4
		c-0.1-0.9-0.2-1.8-0.4-2.6c-0.3-1.3-1.2-2-2.4-2.3c-0.6-0.2-1.2-0.3-1.9-0.3c-2.7,0-5.5,0-8.2,0c-0.1,0-0.2,0.1-0.4,0.1
		c-0.2,0.4-0.1,0.9-0.1,1.3c0,4,0,7.9,0,11.9c0,0.5,0.1,0.9-0.1,1.4c-0.8,0.2-1.7,0.1-2.5,0.1c-0.8,0-1.7,0-2.5,0
		c-0.8,0-1.7,0.1-2.5-0.1c0-0.3-0.1-0.5-0.1-0.8c-0.1-6.2-0.1-35.6,0.1-37c0.3,0,0.5-0.1,0.8-0.1c5.9,0,11.7,0,17.6,0
		c1.2,0,2.4,0.2,3.6,0.4c2.2,0.4,4.1,1.5,5.6,3.2c3.1,3.8,3.4,8.7,1.1,12.8c-0.7,1.2-1.7,2.2-3,2.9c-0.3,0.2-0.6,0.3-0.9,0.5
		c0,0.4,0.3,0.4,0.4,0.5c2.4,1.2,3.5,3.2,3.8,5.8c0.1,1.1,0.2,2.3,0.2,3.4c0,1.5,0,2.9,0.1,4.4c0,1.1,0.4,2.1,1.2,2.9
		C300.3,389.1,300.3,389.2,300.1,389.9z M277.3,368.8c0.2,0.1,0.2,0.1,0.3,0.1c3,0,6,0,9,0c0.8,0,1.7-0.2,2.5-0.4
		c1.2-0.4,2-1.2,2.4-2.4c0.5-1.6,0.4-3.2-0.2-4.7c-0.4-1.1-1.3-1.9-2.4-2.2c-0.7-0.2-1.5-0.3-2.2-0.3c-2.9,0-5.7,0-8.6,0
		c-0.2,0-0.5,0.1-0.7,0.1C277.1,360,277.1,367.7,277.3,368.8z"/>
	<path class="st1" d="M160.8,371c0,2.7-0.4,5.3-1.1,7.9c-1,3.4-2.8,6.2-5.4,8.5c-1.7,1.5-3.7,2.5-5.9,3c-3.7,0.9-7.3,0.9-11,0.2
		c-4.4-0.9-7.6-3.5-9.9-7.2c-1.3-2.1-2.1-4.4-2.6-6.8c-0.7-4-0.7-8,0.2-12c0.9-4,2.8-7.3,5.9-9.9c1.6-1.4,3.5-2.3,5.6-2.9
		c3.9-1,7.7-1.1,11.6-0.1c4.8,1.1,8.1,4.1,10.3,8.4c1.1,2,1.7,4.2,2,6.5C160.6,368,160.7,369.5,160.8,371z M152.8,370.7
		c-0.1-0.8-0.1-1.9-0.2-3c-0.3-1.9-0.8-3.8-1.8-5.5c-1.4-2.3-3.5-3.9-6.2-4.4c-0.9-0.2-1.8-0.2-2.8-0.1c-2.7,0.1-4.9,1.2-6.6,3.2
		c-1.1,1.3-1.9,2.9-2.3,4.6c-0.9,3.6-0.9,7.2,0,10.9c0.3,1.4,0.9,2.7,1.8,3.9c1.3,1.8,3,3.1,5.1,3.6c1.2,0.3,2.5,0.4,3.8,0.3
		c2.9-0.3,5.2-1.6,6.8-4c0.6-0.9,1.1-1.9,1.4-2.9C152.6,375.3,152.7,373.1,152.8,370.7z"/>
	<path class="st1" d="M234.4,390c-0.1-1.3-0.1-36.6,0-37.7c0.2,0,0.4-0.1,0.7-0.1c0.3,0,0.5,0,0.8,0c8.3,0,16.5,0,24.8,0
		c0.5,0,0.9,0,1.3,0c0.2,1,0.3,5,0.1,6.5c-0.4,0.2-0.9,0.1-1.3,0.1c-4.1,0-8.3,0-12.4,0c-1.6,0-3.3,0-4.9,0c-0.4,0-0.7,0-1.2,0
		c-0.2,1.3-0.1,2.6-0.1,3.9c0,1.3-0.1,2.6,0.1,3.9c0.5,0.3,0.9,0.2,1.4,0.2c5.1,0,10.3,0,15.4,0c0.5,0,0.9,0,1.4,0
		c0.3,0.8,0.2,1.5,0.2,2.2c0,0.7,0,1.4,0,2.1c0,0.7,0,1.4-0.1,2.1c-0.5,0.2-1,0.1-1.4,0.1c-5.1,0-10.3,0-15.4,0c-0.5,0-0.9,0-1.4,0
		c0,0.3-0.1,0.6-0.1,0.8c-0.1,3.7,0,7.6,0.1,8.8c0.5,0.2,1,0.1,1.5,0.1c5.8,0,11.5,0,17.3,0c0.5,0,0.9,0,1.4,0
		c0.2,0,0.4,0.1,0.6,0.1c0.2,1.2,0.2,5.6,0,6.6c-0.1,0-0.1,0.1-0.2,0.1c-9.2,0-18.4,0-27.7,0C234.8,390.1,234.6,390,234.4,390z"/>
	<path class="st1" d="M195,363.3c-1.2,0.1-6.4,0.1-7.5,0c-0.1-0.4-0.2-0.8-0.3-1.2c-0.4-1.6-1.3-2.8-2.8-3.5c-1-0.5-2.1-0.8-3.3-0.9
		c-1.6-0.2-3.2-0.1-4.7,0.4c-0.8,0.2-1.6,0.6-2.2,1.2c-0.9,0.8-1.4,1.8-1.4,3c0,1.2,0.5,2.2,1.6,2.9c0.6,0.3,1.2,0.6,1.8,0.8
		c1.9,0.5,3.8,1,5.7,1.5c1.8,0.4,3.5,0.8,5.3,1.3c1.2,0.3,2.4,0.7,3.6,1.3c3.5,1.6,5.2,4.4,5.5,8.1c0.3,5-2.3,9.2-6.9,11.3
		c-1.7,0.8-3.4,1.2-5.2,1.4c-3.1,0.3-6.1,0.3-9.2-0.4c-2.5-0.6-4.8-1.6-6.7-3.4c-2.3-2.2-3.4-4.9-3.5-8c0-0.1,0-0.2,0-0.3
		c0-0.1,0.1-0.2,0.1-0.2c0.9-0.2,5.8-0.2,7.3-0.1c0.1,0.2,0.1,0.4,0.2,0.7c0,0.1,0.1,0.2,0.1,0.4c0.6,2.7,2.3,4.2,4.9,4.8
		c2.4,0.5,4.8,0.4,7.1-0.2c0.8-0.2,1.6-0.5,2.3-1.1c1.4-1.1,1.9-2.6,1.5-4.4c-0.2-0.9-0.7-1.5-1.5-1.9c-0.7-0.4-1.4-0.7-2.2-1
		c-1.6-0.5-3.3-0.9-4.9-1.2c-2.3-0.5-4.7-1-7-1.8c-0.8-0.3-1.6-0.6-2.3-0.9c-2.6-1.2-4.2-3.2-4.8-6c-0.4-1.6-0.4-3.2-0.2-4.9
		c0.6-3.7,2.7-6.4,6-8.1c1.4-0.8,2.9-1.2,4.4-1.4c2.9-0.5,5.9-0.5,8.8,0.2c2.2,0.5,4.1,1.4,5.9,2.8c2.8,2.2,4.1,5.1,4.3,8.6
		C195.1,363,195,363.1,195,363.3z"/>
	<path class="st1" d="M407.6,389.9c-1.1,0.2-7.3,0.2-8.5,0c-0.9-2.5-1.6-5.1-2.5-7.6c-1.1-0.1-12.4-0.2-13.9,0
		c-0.1,0.2-0.2,0.5-0.3,0.8c-0.6,1.8-1.2,3.6-1.8,5.4c-0.2,0.5-0.3,0.9-0.5,1.5c-1.4,0.2-2.7,0.1-4,0.1c-1.3,0-2.7,0-4,0
		c-0.2-0.5,0-0.8,0.1-1.2c1.5-4.1,2.9-8.2,4.4-12.4c2.8-7.7,5.5-15.5,8.3-23.2c0.1-0.4,0.3-0.8,0.4-1.1c1.1-0.2,7.7-0.2,8.9,0
		c0,0,0.1,0,0.1,0.1c0,0,0.1,0.1,0.1,0.1c4.4,12.4,8.8,24.7,13.2,37.1C407.5,389.6,407.5,389.7,407.6,389.9z M394.3,375.7
		c-0.2-1.1-3.3-11.2-4.4-14.1c0-0.1-0.1-0.2-0.3-0.4c-0.1,0.3-0.2,0.4-0.3,0.6c-0.3,0.8-0.5,1.6-0.8,2.4c-1.2,3.6-2.3,7.1-3.5,10.7
		c-0.1,0.2-0.1,0.5-0.1,0.7C388.1,375.7,391.2,375.7,394.3,375.7z"/>
	<path class="st1" d="M98.8,376.4c-0.1,1.3,0,2.3,0,3.4c0,1.1,0,2.3,0,3.4c0,1.1,0,2.2,0,3.3c0,1.1,0,2.2,0,3.3
		c-0.2,0.1-0.4,0.2-0.5,0.2c-2.3,0-4.6,0-6.9,0c-0.1,0-0.2-0.1-0.3-0.1c0-0.2-0.1-0.4-0.1-0.7c0-0.3,0-0.6,0-0.9
		c0-11.5,0-23.1,0-34.6c0-0.5,0-1,0-1.6c0.4,0,0.6-0.1,0.9-0.1c5.3,0,10.5,0,15.8,0c1.7,0,3.4,0.2,5,0.8c3.7,1.4,6,4,6.7,7.9
		c0.5,2.6,0.4,5.3-0.2,7.9c-0.7,3.2-2.7,5.5-5.8,6.6c-1.9,0.7-3.9,1-5.9,1.1c-2.3,0.1-4.6,0-6.9,0C99.9,376.4,99.4,376.4,98.8,376.4
		z M98.8,369.8c0.4,0,0.6,0.1,0.8,0.1c2.1,0,4.2,0,6.3,0c0.6,0,1.3-0.1,1.9-0.2c1.9-0.4,3.2-1.5,3.6-3.4c0.3-1.3,0.3-2.7,0-4
		c-0.3-1.5-1.2-2.5-2.6-3c-0.9-0.3-1.8-0.5-2.7-0.5c-2.1,0-4.1,0-6.2,0c-0.3,0-0.7,0-1,0.1c0,0.2-0.1,0.4-0.1,0.5
		C98.8,362.8,98.8,366.2,98.8,369.8z"/>
	<path class="st1" d="M198.8,358.8c-0.2-1.4-0.2-5.6,0-6.6c0.1,0,0.2-0.1,0.3-0.1c9.9,0,19.8,0,29.7,0c0.2,0,0.3,0.1,0.5,0.1
		c0.2,1.1,0.2,5.4,0,6.5c-0.3,0-0.7,0.1-1.1,0.1c-2.9,0-5.8,0-8.7,0c-0.4,0-0.8,0-1.3,0c0,0.3-0.1,0.5-0.1,0.8c0,0.4,0,0.8,0,1.1
		c0,9.2,0,18.4,0,27.7c0,0.5,0.1,1-0.1,1.5c-0.1,0.1-0.2,0.1-0.3,0.1c-2.2,0-4.5,0-6.7,0c-0.2,0-0.5,0-0.8-0.1
		c0-0.3-0.1-0.5-0.1-0.7c0-0.9,0-1.9,0-2.8c0-8.7,0-17.3,0-26c0-0.5,0.1-1-0.1-1.5c-1.2-0.2-2.4-0.1-3.6-0.1c-1.3,0-2.5,0-3.8,0
		C201.3,358.8,200.1,358.8,198.8,358.8z"/>
	<path class="st1" d="M362.8,389.9c-1.1,0.2-4.7,0.2-5.9,0c-0.2-0.4,0.1-0.8,0.3-1.2c1.4-3.7,2.8-7.4,4.2-11.1
		c3.2-8.5,6.4-16.9,9.6-25.4c0.2-0.4,0.3-0.8,0.5-1.3c2,0,3.9,0,5.9,0c0.2,0.4-0.1,0.8-0.2,1.1c-1.6,4.3-3.3,8.7-4.9,13
		c-2.9,7.8-5.9,15.6-8.8,23.4C363.2,389,363,389.5,362.8,389.9z"/>
</g>
</svg>
