<?xml version="1.0" encoding="utf-8"?>
<!-- Generator: Adobe Illustrator 19.2.1, SVG Export Plug-In . SVG Version: 6.00 Build 0)  -->
<svg version="1.1" id="Layer_1" xmlns="http://www.w3.org/2000/svg" xmlns:xlink="http://www.w3.org/1999/xlink" x="0px" y="0px"
	 viewBox="0 0 500 751" style="enable-background:new 0 0 500 751;" xml:space="preserve">
<style type="text/css">
	.st0{fill:#171617;stroke:#000000;stroke-miterlimit:10;}
	.st1{fill:#393A3A;}
</style>
<rect class="st0" width="500" height="751"/>
<g id="RYrGoN.tif">
	<g>
		<path class="st1" d="M249.8,587.5c-55.3,0-110.6,0-165.9,0c-9.3,0-9.3,0-9.3-9c0-18.3,0.4-36.6-0.1-54.9
			c-0.8-30.9,13.1-54.7,35.5-74.3c25.5-22.4,56.5-32.6,89.3-37.4c42.1-6,84.1-5.6,125.6,4.9c27.6,7,52.8,18.7,72.8,39.6
			c18,18.8,28.7,40.6,27.9,67.5c-0.6,18.3-0.1,36.6-0.1,54.9c0,8.7,0,8.7-9,8.7C360.9,587.5,305.3,587.5,249.8,587.5z"/>
		<path class="st1" d="M250.7,385.9c-59.1,0.1-105.8-46.5-105.9-105.5c0-58.7,47.1-106,105.7-106c58.3,0,105.8,47.7,105.7,106.2
			C356.3,338.9,309.2,385.9,250.7,385.9z"/>
	</g>
</g>
</svg>
